<svg width="48" height="48" viewBox="0 0 48 48" fill="none" xmlns="http://www.w3.org/2000/svg">
<rect width="48" height="48" rx="24" fill="url(#paint0_linear_503_4697)"/>
<g clip-path="url(#clip0_503_4697)">
<path d="M33.9994 28.92V31.92C34.0006 32.1985 33.9435 32.4742 33.832 32.7294C33.7204 32.9845 33.5567 33.2136 33.3515 33.4019C33.1463 33.5901 32.904 33.7335 32.6402 33.8227C32.3764 33.9119 32.0968 33.9451 31.8194 33.92C28.7423 33.5856 25.7864 32.5342 23.1894 30.85C20.7733 29.3147 18.7248 27.2662 17.1894 24.85C15.4994 22.2412 14.4477 19.271 14.1194 16.18C14.0945 15.9035 14.1273 15.6248 14.2159 15.3616C14.3046 15.0985 14.447 14.8567 14.6342 14.6516C14.8214 14.4466 15.0492 14.2827 15.3032 14.1705C15.5572 14.0583 15.8318 14.0003 16.1094 14H19.1094C19.5948 13.9952 20.0652 14.1671 20.4332 14.4835C20.8012 14.8 21.0415 15.2395 21.1094 15.72C21.2361 16.6801 21.4709 17.6227 21.8094 18.53C21.944 18.8879 21.9731 19.2769 21.8934 19.6509C21.8136 20.0249 21.6283 20.3681 21.3594 20.64L20.0894 21.91C21.513 24.4136 23.5859 26.4865 26.0894 27.91L27.3594 26.64C27.6313 26.3711 27.9746 26.1859 28.3486 26.1061C28.7225 26.0263 29.1115 26.0555 29.4694 26.19C30.3767 26.5286 31.3194 26.7634 32.2794 26.89C32.7652 26.9585 33.2088 27.2032 33.526 27.5775C33.8431 27.9518 34.0116 28.4296 33.9994 28.92Z" stroke="#F7F7F7" stroke-width="2.5" stroke-linecap="round" stroke-linejoin="round"/>
</g>
<defs>
<linearGradient id="paint0_linear_503_4697" x1="-13.7154" y1="-83.8707" x2="78.0232" y2="-63.2055" gradientUnits="userSpaceOnUse">
<stop stop-color="#F5F5F5"/>
<stop offset="0.335" stop-color="#94ACC4"/>
<stop offset="1" stop-color="#075097"/>
</linearGradient>
<clipPath id="clip0_503_4697">
<rect width="24" height="24" fill="white" transform="translate(12 12)"/>
</clipPath>
</defs>
</svg>
