<svg width="22" height="22" viewBox="0 0 22 22" fill="none" xmlns="http://www.w3.org/2000/svg">
<path d="M20.1576 0.79998C20.7649 1.1401 21.2122 1.70749 21.4012 2.37739C21.5903 3.04728 21.5055 3.76483 21.1656 4.37223L12.5331 19.7877C12.3144 20.1783 12.0112 20.5149 11.6456 20.7731C11.2799 21.0312 10.8612 21.2042 10.42 21.2795C9.97883 21.3548 9.52639 21.3305 9.09585 21.2082C8.66531 21.0859 8.26758 20.8689 7.93181 20.573L1.38956 14.81C0.867211 14.3497 0.549108 13.7008 0.505225 13.0059C0.461341 12.3111 0.695272 11.6273 1.15556 11.105C1.61584 10.5826 2.26477 10.2645 2.95959 10.2206C3.65441 10.1768 4.33821 10.4107 4.86056 10.871L9.31256 14.7935L16.5846 1.80798C16.753 1.50718 16.979 1.24249 17.2497 1.02904C17.5204 0.815587 17.8305 0.657547 18.1623 0.563944C18.4941 0.470342 18.841 0.44301 19.1834 0.483509C19.5257 0.524008 19.8568 0.631546 20.1576 0.79998Z" fill="url(#paint0_linear_503_4359)"/>
<defs>
<linearGradient id="paint0_linear_503_4359" x1="-5.50044" y1="-35.9782" x2="34.6083" y2="-26.8812" gradientUnits="userSpaceOnUse">
<stop stop-color="#F5F5F5"/>
<stop offset="0.335" stop-color="#94ACC4"/>
<stop offset="1" stop-color="#075097"/>
</linearGradient>
</defs>
</svg>
